<svg xmlns="http://www.w3.org/2000/svg" viewBox="0 0 1024 1024">
  <defs>
    <linearGradient id="bg" x1="0" y1="0" x2="0" y2="1">
      <stop offset="0" stop-color="#6c8cff"/>
      <stop offset="1" stop-color="#3346d3"/>
    </linearGradient>
    <linearGradient id="sheen" x1="0" y1="0" x2="0" y2="1">
      <stop offset="0" stop-color="#ffffff" stop-opacity=".28"/>
      <stop offset=".5" stop-color="#ffffff" stop-opacity="0"/>
    </linearGradient>
    <linearGradient id="pane" x1="0" y1="0" x2="0" y2="1">
      <stop offset="0" stop-color="#ffffff"/>
      <stop offset="1" stop-color="#eef1ff"/>
    </linearGradient>
  </defs>
  <rect x="104" y="118" width="816" height="816" rx="190" fill="#1b2370" opacity=".05"/>
  <rect x="102" y="112" width="820" height="820" rx="188" fill="#1b2370" opacity=".07"/>
  <rect x="100" y="106" width="824" height="824" rx="186" fill="#1b2370" opacity=".10"/>
  <rect x="100" y="100" width="824" height="824" rx="186" fill="url(#bg)"/>
  <rect x="100" y="100" width="824" height="824" rx="186" fill="url(#sheen)"/>
  <rect x="196" y="236" width="300" height="552" rx="44" fill="url(#pane)"/>
  <rect x="528" y="236" width="300" height="552" rx="44" fill="url(#pane)"/>
  <rect x="236" y="300" width="150" height="26" rx="13" fill="#cdd3ea"/>
  <rect x="236" y="364" width="210" height="26" rx="13" fill="#cdd3ea"/>
  <rect x="196" y="420" width="300" height="74" fill="#ffd9dd"/>
  <rect x="196" y="420" width="14" height="74" fill="#ff3b4f"/>
  <rect x="236" y="444" width="180" height="26" rx="13" fill="#ff6b7a"/>
  <rect x="236" y="532" width="120" height="26" rx="13" fill="#cdd3ea"/>
  <rect x="236" y="596" width="190" height="26" rx="13" fill="#cdd3ea"/>
  <rect x="236" y="660" width="90" height="26" rx="13" fill="#cdd3ea"/>
  <rect x="568" y="300" width="150" height="26" rx="13" fill="#cdd3ea"/>
  <rect x="568" y="364" width="210" height="26" rx="13" fill="#cdd3ea"/>
  <rect x="528" y="420" width="300" height="138" fill="#d2f6df"/>
  <rect x="528" y="420" width="14" height="138" fill="#16b955"/>
  <rect x="568" y="444" width="220" height="26" rx="13" fill="#3cc874"/>
  <rect x="568" y="508" width="150" height="26" rx="13" fill="#3cc874"/>
  <rect x="568" y="596" width="190" height="26" rx="13" fill="#cdd3ea"/>
  <rect x="568" y="660" width="90" height="26" rx="13" fill="#cdd3ea"/>
</svg>
